<svg width="134" height="32" viewBox="0 0 134 32" fill="none" xmlns="http://www.w3.org/2000/svg">
<path d="M17.6197 25.6893C17.6484 22.7521 16.9038 20.3636 15.9566 20.3544C15.0093 20.3452 14.2182 22.7187 14.1895 25.6557C14.1608 28.5929 14.9054 30.9814 15.8526 30.9907C16.7999 30.9999 17.591 28.6264 17.6197 25.6893Z" fill="#FF7020"/>
<path d="M12.1261 25.0222C13.7383 22.5669 14.4033 20.155 13.6115 19.6351C12.8196 19.1151 10.8708 20.684 9.25862 23.1393C7.6464 25.5946 6.98137 28.0065 7.77318 28.5265C8.56505 29.0464 10.5139 27.4775 12.1261 25.0222Z" fill="#FF7020"/>
<path d="M7.85868 21.4995C10.5425 20.3058 12.4059 18.6364 12.0209 17.7709C11.636 16.9053 9.14828 17.1714 6.46451 18.3652C3.78076 19.559 1.91725 21.2283 2.30224 22.0939C2.68723 22.9594 5.17493 22.6933 7.85868 21.4995Z" fill="#FF7020"/>
<path d="M11.6988 15.3437C11.8429 14.4074 9.60634 13.2862 6.7033 12.8394C3.80018 12.3925 1.32995 12.7893 1.18584 13.7256C1.04174 14.6618 3.27834 15.783 6.18143 16.2298C9.08448 16.6767 11.5548 16.2799 11.6988 15.3437Z" fill="#FF7020"/>
<path d="M12.7411 13.1133C13.3684 12.4035 12.0928 10.2512 9.8919 8.3061C7.69101 6.36096 5.39828 5.35951 4.77097 6.06931C4.14365 6.77912 5.4193 8.93138 7.62022 10.8765C9.82112 12.8217 12.1139 13.8231 12.7411 13.1133Z" fill="#FF7020"/>
<path d="M14.8169 11.8098C15.7284 11.5519 15.8189 9.05157 15.0192 6.2253C14.2195 3.399 12.8322 1.31692 11.9207 1.57485C11.0092 1.83278 10.9187 4.33303 11.7184 7.15935C12.5181 9.98559 13.9054 12.0677 14.8169 11.8098Z" fill="#FF7020"/>
<path d="M20.4534 7.24729C21.3087 4.4373 21.2675 1.93575 20.3613 1.6599C19.455 1.38405 18.027 3.43836 17.1716 6.24833C16.3164 9.05829 16.3576 11.5599 17.2638 11.8357C18.17 12.1115 19.5981 10.0573 20.4534 7.24729Z" fill="#FF7020"/>
<path d="M24.4809 11.0441C26.7194 9.14239 28.0369 7.01548 27.4235 6.29358C26.8102 5.57166 24.4984 6.52812 22.2599 8.42981C20.0214 10.3316 18.7039 12.4585 19.3172 13.1804C19.9306 13.9023 22.2424 12.9459 24.4809 11.0441Z" fill="#FF7020"/>
<path d="M25.8126 16.4172C28.724 16.0277 30.9822 14.9508 30.8566 14.0119C30.731 13.073 28.2691 12.6276 25.3577 13.0171C22.4464 13.4066 20.1881 14.4835 20.3137 15.4224C20.4394 16.3613 22.9012 16.8067 25.8126 16.4172Z" fill="#FF7020"/>
<path d="M29.5683 22.3622C29.9702 21.5045 28.14 19.7987 25.4803 18.5523C22.8207 17.3058 20.3387 16.9907 19.9367 17.8484C19.5347 18.7062 21.3649 20.412 24.0246 21.6585C26.6843 22.9049 29.1663 23.22 29.5683 22.3622Z" fill="#FF7020"/>
<path d="M23.9737 28.6911C24.7756 28.1869 24.1583 25.7624 22.5948 23.2758C21.0314 20.7892 19.1138 19.1822 18.3119 19.6864C17.51 20.1906 18.1273 22.6152 19.6908 25.1018C21.2542 27.5883 23.1718 29.1954 23.9737 28.6911Z" fill="#FF7020"/>
<path d="M41.12 25V6.52H48.568C49.7067 6.52 50.7147 6.62267 51.592 6.828C52.488 7.03333 53.244 7.34133 53.86 7.752C54.4947 8.144 54.9707 8.63867 55.288 9.236C55.624 9.83333 55.792 10.5333 55.792 11.336C55.792 12.0827 55.6333 12.7547 55.316 13.352C55.0173 13.9493 54.5227 14.4347 53.832 14.808C53.16 15.1627 52.2733 15.3867 51.172 15.48V15.732C53.0573 15.8253 54.42 16.264 55.26 17.048C56.1187 17.832 56.548 18.868 56.548 20.156C56.548 21.2387 56.268 22.1347 55.708 22.844C55.148 23.5533 54.3267 24.0947 53.244 24.468C52.18 24.8227 50.8547 25 49.268 25H41.12ZM45.656 21.36H49.072C50.024 21.36 50.7613 21.192 51.284 20.856C51.8067 20.5013 52.068 20.0067 52.068 19.372C52.068 18.6627 51.7693 18.14 51.172 17.804C50.5933 17.4493 49.716 17.272 48.54 17.272H45.656V21.36ZM45.656 14.192H48.092C49.156 14.192 49.968 14.0147 50.528 13.66C51.088 13.3053 51.368 12.7827 51.368 12.092C51.368 11.4387 51.116 10.9533 50.612 10.636C50.108 10.3 49.352 10.132 48.344 10.132H45.656V14.192ZM58.1552 25V6.52H62.6912V25H58.1552ZM61.5432 25V21.22H71.3712V25H61.5432ZM61.5432 17.384V13.996H70.0832V17.384H61.5432ZM61.5432 10.3V6.52H71.3712V10.3H61.5432ZM77.1123 25V6.52H81.6483V25H77.1123ZM72.5483 10.384V6.52H86.2123V10.384H72.5483ZM92.0419 25V6.52H96.5779V25H92.0419ZM87.4779 10.384V6.52H101.142V10.384H87.4779ZM102.643 25V6.52H107.179V25H102.643ZM106.031 25V21.22H115.859V25H106.031ZM106.031 17.384V13.996H114.571V17.384H106.031ZM106.031 10.3V6.52H115.859V10.3H106.031ZM117.765 25V6.52H125.437C126.258 6.52 127.033 6.59467 127.761 6.744C128.507 6.87467 129.179 7.08 129.777 7.36C130.393 7.64 130.925 7.99467 131.373 8.424C131.821 8.85333 132.166 9.36667 132.409 9.964C132.651 10.5427 132.773 11.2053 132.773 11.952C132.773 12.5307 132.67 13.0813 132.465 13.604C132.278 14.108 131.97 14.5653 131.541 14.976C131.13 15.3867 130.589 15.732 129.917 16.012C129.263 16.2733 128.479 16.46 127.565 16.572V16.796C128.759 16.852 129.683 17.0853 130.337 17.496C130.99 17.9067 131.475 18.4293 131.793 19.064C132.129 19.68 132.381 20.352 132.549 21.08L133.529 25H128.517L127.817 21.332C127.705 20.6973 127.527 20.184 127.285 19.792C127.061 19.4 126.734 19.1107 126.305 18.924C125.875 18.7373 125.306 18.644 124.597 18.644H122.301V25H117.765ZM122.301 15.144H124.933C125.959 15.144 126.743 14.948 127.285 14.556C127.826 14.164 128.097 13.5667 128.097 12.764C128.097 11.8867 127.845 11.2333 127.341 10.804C126.837 10.3747 126.071 10.16 125.045 10.16H122.301V15.144Z" fill="#292D32"/>
</svg>
