<svg width="32" height="32" viewBox="0 0 32 32" fill="none" xmlns="http://www.w3.org/2000/svg">
<path d="M17.6197 25.6893C17.6484 22.7521 16.9038 20.3636 15.9566 20.3544C15.0093 20.3452 14.2182 22.7187 14.1895 25.6557C14.1608 28.5929 14.9054 30.9814 15.8526 30.9907C16.7999 30.9999 17.591 28.6264 17.6197 25.6893Z" fill="#FF7020"/>
<path d="M12.1261 25.0222C13.7383 22.5669 14.4033 20.155 13.6115 19.6351C12.8196 19.1151 10.8708 20.684 9.25863 23.1393C7.6464 25.5946 6.98138 28.0065 7.77318 28.5265C8.56506 29.0464 10.5139 27.4775 12.1261 25.0222Z" fill="#FF7020"/>
<path d="M7.85869 21.4995C10.5425 20.3058 12.406 18.6364 12.0209 17.7709C11.636 16.9053 9.14829 17.1714 6.46451 18.3652C3.78076 19.559 1.91726 21.2283 2.30225 22.0939C2.68723 22.9594 5.17494 22.6933 7.85869 21.4995Z" fill="#FF7020"/>
<path d="M11.6988 15.3437C11.8429 14.4074 9.60634 13.2862 6.7033 12.8394C3.80018 12.3925 1.32995 12.7893 1.18584 13.7256C1.04174 14.6618 3.27834 15.783 6.18143 16.2298C9.08448 16.6767 11.5548 16.2799 11.6988 15.3437Z" fill="#FF7020"/>
<path d="M12.7411 13.1133C13.3684 12.4035 12.0928 10.2512 9.8919 8.3061C7.69101 6.36096 5.39828 5.35951 4.77097 6.06931C4.14365 6.77912 5.4193 8.93138 7.62022 10.8765C9.82112 12.8217 12.1139 13.8231 12.7411 13.1133Z" fill="#FF7020"/>
<path d="M14.8169 11.8098C15.7284 11.5519 15.8189 9.05157 15.0192 6.2253C14.2195 3.399 12.8322 1.31692 11.9207 1.57485C11.0092 1.83278 10.9187 4.33303 11.7184 7.15935C12.5181 9.98559 13.9054 12.0677 14.8169 11.8098Z" fill="#FF7020"/>
<path d="M20.4534 7.24729C21.3087 4.4373 21.2675 1.93575 20.3613 1.6599C19.455 1.38405 18.027 3.43836 17.1716 6.24833C16.3164 9.05829 16.3576 11.5599 17.2638 11.8357C18.17 12.1115 19.5981 10.0573 20.4534 7.24729Z" fill="#FF7020"/>
<path d="M24.4809 11.0441C26.7194 9.14239 28.0369 7.01548 27.4236 6.29358C26.8102 5.57166 24.4984 6.52812 22.2599 8.42981C20.0214 10.3316 18.7039 12.4585 19.3172 13.1804C19.9306 13.9023 22.2424 12.9459 24.4809 11.0441Z" fill="#FF7020"/>
<path d="M25.8126 16.4172C28.724 16.0277 30.9822 14.9508 30.8566 14.0119C30.731 13.073 28.2691 12.6276 25.3577 13.0171C22.4464 13.4066 20.1881 14.4835 20.3137 15.4224C20.4394 16.3613 22.9012 16.8067 25.8126 16.4172Z" fill="#FF7020"/>
<path d="M29.5683 22.3622C29.9702 21.5045 28.14 19.7987 25.4803 18.5523C22.8207 17.3058 20.3387 16.9907 19.9367 17.8484C19.5347 18.7062 21.3649 20.412 24.0246 21.6585C26.6843 22.9049 29.1663 23.22 29.5683 22.3622Z" fill="#FF7020"/>
<path d="M23.9737 28.6911C24.7756 28.1869 24.1583 25.7624 22.5948 23.2758C21.0314 20.7892 19.1138 19.1822 18.3119 19.6864C17.51 20.1906 18.1273 22.6152 19.6908 25.1018C21.2542 27.5883 23.1718 29.1954 23.9737 28.6911Z" fill="#FF7020"/>
</svg>
