<svg width="353" height="166" viewBox="0 0 353 166" fill="none" xmlns="http://www.w3.org/2000/svg">
<g clip-path="url(#clip0_2053_8855)">
<rect width="353" height="166" rx="16" fill="url(#paint0_linear_2053_8855)"/>
<path d="M-2 53.2306C8.33333 58.3972 40.1 61.6306 84.5 33.2306C140 -2.26943 156.5 58.7306 217.5 47.7306C278.5 36.7306 240.5 152.73 354 134.23" stroke="white" stroke-opacity="0.07" stroke-width="2"/>
<path d="M379.679 -77.2591C374.96 -70.2578 367.866 -45.9501 377.233 -4.72966C388.943 46.796 350.509 46.3647 346.967 96.8294C343.424 147.294 281.695 91.8327 273.952 185.297" stroke="white" stroke-opacity="0.07" stroke-width="2"/>
<path d="M-2 66.9611C8.33333 72.1277 40.1 75.3611 84.5 46.9611C140 11.4611 156.5 72.4611 217.5 61.4611C278.5 50.4611 240.5 166.461 354 147.961" stroke="white" stroke-opacity="0.07" stroke-width="2"/>
<path d="M368.484 -80.2813C363.766 -73.2801 356.672 -48.9724 366.039 -7.75188C377.748 43.7737 339.315 43.3424 335.773 93.8072C332.23 144.272 270.501 88.8105 262.757 182.275" stroke="white" stroke-opacity="0.07" stroke-width="2"/>
<path d="M-2 80.6915C8.33333 85.8582 40.1 89.0915 84.5 60.6915C140 25.1915 156.5 86.1915 217.5 75.1915C278.5 64.1915 240.5 180.191 354 161.691" stroke="white" stroke-opacity="0.07" stroke-width="2"/>
<path d="M357.29 -83.3038C352.572 -76.3025 345.477 -51.9948 354.845 -10.7743C366.554 40.7513 328.121 40.32 324.578 90.7847C321.036 141.249 259.307 85.788 251.563 179.252" stroke="white" stroke-opacity="0.07" stroke-width="2"/>
<path d="M-2 94.422C8.33333 99.5887 40.1 102.822 84.5 74.422C140 38.922 156.5 99.922 217.5 88.922C278.5 77.922 240.5 193.922 354 175.422" stroke="white" stroke-opacity="0.07" stroke-width="2"/>
<path d="M346.095 -86.326C341.377 -79.3247 334.283 -55.017 343.65 -13.7966C355.359 37.7291 316.926 37.2978 313.383 87.7625C309.841 138.227 248.112 82.7658 240.368 176.23" stroke="white" stroke-opacity="0.07" stroke-width="2"/>
<path d="M-2 108.152C8.33333 113.319 40.1 116.552 84.5 88.1525C140 52.6525 156.5 113.652 217.5 102.652C278.5 91.6525 240.5 207.652 354 189.152" stroke="white" stroke-opacity="0.07" stroke-width="2"/>
<path d="M334.9 -89.3482C330.182 -82.347 323.088 -58.0393 332.455 -16.8188C344.164 34.7068 305.731 34.2755 302.189 84.7403C298.646 135.205 236.917 79.7436 229.173 173.208" stroke="white" stroke-opacity="0.07" stroke-width="2"/>
</g>
<defs>
<linearGradient id="paint0_linear_2053_8855" x1="353" y1="166" x2="-9.33112" y2="23.7712" gradientUnits="userSpaceOnUse">
<stop offset="0.00233953" stop-color="#5B9BFB"/>
<stop offset="1" stop-color="#1053D5"/>
</linearGradient>
<clipPath id="clip0_2053_8855">
<rect width="353" height="166" rx="16" fill="white"/>
</clipPath>
</defs>
</svg>
