<svg width="500" height="92" viewBox="0 0 500 92" fill="none" xmlns="http://www.w3.org/2000/svg">
<g clip-path="url(#clip0_2018_5755)">
<rect width="500" height="92" rx="20" fill="#277B53"/>
<circle cx="73" cy="73" r="73" transform="matrix(-1 0 0 1 612 -27)" fill="white" fill-opacity="0.07"/>
<circle cx="73" cy="73" r="72.5" transform="matrix(-1 0 0 1 612 -27)" stroke="white" stroke-opacity="0.02"/>
<circle cx="73" cy="73" r="73" transform="matrix(-1 0 0 1 586 -27)" fill="white" fill-opacity="0.06"/>
<circle cx="73" cy="73" r="72.5" transform="matrix(-1 0 0 1 586 -27)" stroke="white" stroke-opacity="0.05"/>
<circle cx="73" cy="73" r="73" transform="matrix(-1 0 0 1 560 -27)" fill="white" fill-opacity="0.14"/>
<circle cx="73" cy="73" r="72.5" transform="matrix(-1 0 0 1 560 -27)" stroke="white" stroke-opacity="0.06"/>
</g>
<defs>
<clipPath id="clip0_2018_5755">
<rect width="500" height="92" rx="20" fill="white"/>
</clipPath>
</defs>
</svg>
