<svg width="353" height="60" viewBox="0 0 353 60" fill="none" xmlns="http://www.w3.org/2000/svg">
<g clip-path="url(#clip0_2053_9178)">
<rect width="353" height="60" fill="#FF133D"/>
<circle cx="73" cy="73" r="73" transform="matrix(-1 0 0 1 465 -43)" fill="white" fill-opacity="0.07"/>
<circle cx="73" cy="73" r="72.5" transform="matrix(-1 0 0 1 465 -43)" stroke="white" stroke-opacity="0.02"/>
<circle cx="73" cy="73" r="73" transform="matrix(-1 0 0 1 439 -43)" fill="white" fill-opacity="0.06"/>
<circle cx="73" cy="73" r="72.5" transform="matrix(-1 0 0 1 439 -43)" stroke="white" stroke-opacity="0.05"/>
<circle cx="73" cy="73" r="73" transform="matrix(-1 0 0 1 413 -43)" fill="white" fill-opacity="0.14"/>
<circle cx="73" cy="73" r="72.5" transform="matrix(-1 0 0 1 413 -43)" stroke="white" stroke-opacity="0.06"/>
</g>
<defs>
<clipPath id="clip0_2053_9178">
<rect width="353" height="60" fill="white"/>
</clipPath>
</defs>
</svg>
