<svg width="100" height="23" viewBox="0 0 100 23" fill="none" xmlns="http://www.w3.org/2000/svg">
<rect width="100" height="23" rx="11.5" fill="#277B53" fill-opacity="0.09"/>
<circle cx="13" cy="11.5" r="5" fill="#277B53"/>
<path d="M22.406 16L25.73 7.6H27.458L30.758 16H28.694L27.11 11.74C27.046 11.572 26.982 11.392 26.918 11.2C26.854 11.008 26.79 10.812 26.726 10.612C26.662 10.404 26.598 10.204 26.534 10.012C26.478 9.812 26.43 9.628 26.39 9.46L26.75 9.448C26.702 9.648 26.646 9.844 26.582 10.036C26.526 10.228 26.466 10.42 26.402 10.612C26.346 10.796 26.282 10.984 26.21 11.176C26.138 11.36 26.07 11.552 26.006 11.752L24.422 16H22.406ZM23.99 14.392L24.626 12.856H28.49L29.114 14.392H23.99ZM33.2557 16L29.8957 7.6H32.0197L33.6397 11.884C33.7357 12.132 33.8157 12.348 33.8797 12.532C33.9517 12.716 34.0117 12.888 34.0597 13.048C34.1157 13.208 34.1637 13.372 34.2037 13.54C34.2517 13.7 34.3037 13.884 34.3597 14.092H33.9877C34.0517 13.82 34.1157 13.58 34.1797 13.372C34.2437 13.156 34.3157 12.936 34.3957 12.712C34.4757 12.48 34.5757 12.204 34.6957 11.884L36.2557 7.6H38.3437L34.9597 16H33.2557ZM37.4763 16L40.8003 7.6H42.5283L45.8283 16H43.7643L42.1803 11.74C42.1163 11.572 42.0523 11.392 41.9883 11.2C41.9243 11.008 41.8603 10.812 41.7963 10.612C41.7323 10.404 41.6683 10.204 41.6043 10.012C41.5483 9.812 41.5003 9.628 41.4603 9.46L41.8203 9.448C41.7723 9.648 41.7163 9.844 41.6523 10.036C41.5963 10.228 41.5363 10.42 41.4723 10.612C41.4163 10.796 41.3523 10.984 41.2803 11.176C41.2083 11.36 41.1403 11.552 41.0763 11.752L39.4923 16H37.4763ZM39.0603 14.392L39.6963 12.856H43.5603L44.1843 14.392H39.0603ZM46.7083 16V14.284H48.1243V9.316H46.7083V7.6H51.5923V9.316H50.1643V14.284H51.5923V16H46.7083ZM53.5326 16V7.6H55.5726V14.2H59.3166V16H53.5326ZM59.7771 16L63.1011 7.6H64.8291L68.1291 16H66.0651L64.4811 11.74C64.4171 11.572 64.3531 11.392 64.2891 11.2C64.2251 11.008 64.1611 10.812 64.0971 10.612C64.0331 10.404 63.9691 10.204 63.9051 10.012C63.8491 9.812 63.8011 9.628 63.7611 9.46L64.1211 9.448C64.0731 9.648 64.0171 9.844 63.9531 10.036C63.8971 10.228 63.8371 10.42 63.7731 10.612C63.7171 10.796 63.6531 10.984 63.5811 11.176C63.5091 11.36 63.4411 11.552 63.3771 11.752L61.7931 16H59.7771ZM61.3611 14.392L61.9971 12.856H65.8611L66.4851 14.392H61.3611ZM69.1771 16V7.6H72.8851C73.4611 7.6 73.9491 7.684 74.3491 7.852C74.7491 8.012 75.0491 8.248 75.2491 8.56C75.4571 8.864 75.5611 9.232 75.5611 9.664C75.5611 10.144 75.4411 10.548 75.2011 10.876C74.9691 11.204 74.6291 11.424 74.1811 11.536L74.1571 11.308C74.5331 11.388 74.8571 11.528 75.1291 11.728C75.4091 11.928 75.6251 12.176 75.7771 12.472C75.9291 12.76 76.0051 13.088 76.0051 13.456C76.0051 13.88 75.9331 14.252 75.7891 14.572C75.6451 14.884 75.4371 15.148 75.1651 15.364C74.8931 15.58 74.5731 15.74 74.2051 15.844C73.8451 15.948 73.4451 16 73.0051 16H69.1771ZM71.0971 14.296H72.9331C73.1571 14.296 73.3451 14.26 73.4971 14.188C73.6571 14.116 73.7811 14.012 73.8691 13.876C73.9571 13.732 74.0011 13.56 74.0011 13.36C74.0011 13.176 73.9531 13.02 73.8571 12.892C73.7691 12.764 73.6411 12.668 73.4731 12.604C73.3051 12.532 73.1051 12.496 72.8731 12.496H71.0971V14.296ZM71.0971 10.972H72.5971C72.8051 10.972 72.9811 10.94 73.1251 10.876C73.2771 10.804 73.3891 10.708 73.4611 10.588C73.5411 10.46 73.5811 10.308 73.5811 10.132C73.5811 9.876 73.4931 9.676 73.3171 9.532C73.1411 9.38 72.8771 9.304 72.5251 9.304H71.0971V10.972ZM77.5912 16V7.6H79.6312V14.2H83.3752V16H77.5912ZM84.9037 16V7.6H90.7597V9.34H86.8837V14.26H90.8797V16H84.9037ZM85.8637 12.556V10.9H90.2197V12.556H85.8637Z" fill="#277B53"/>
</svg>
