<svg width="100" height="100" viewBox="0 0 100 100" fill="none" xmlns="http://www.w3.org/2000/svg">
<mask id="mask0_26_4201" style="mask-type:alpha" maskUnits="userSpaceOnUse" x="0" y="0" width="100" height="100">
<rect width="100" height="100" rx="50" fill="#F6F6F8"/>
</mask>
<g mask="url(#mask0_26_4201)">
<rect x="-8.1333" y="-8.14014" width="116.279" height="116.279" fill="#F6F6F8"/>
<path d="M49.8798 50.78C49.9498 50.77 50.0398 50.77 50.1198 50.78C51.8798 50.72 53.2798 49.28 53.2798 47.51C53.2798 45.7 51.8198 44.23 49.9998 44.23C48.1898 44.23 46.7198 45.7 46.7198 47.51C46.7298 49.28 48.1198 50.72 49.8798 50.78Z" stroke="#292D32" stroke-width="2" stroke-linecap="round" stroke-linejoin="round"/>
<path d="M43.2602 57.3801C45.0402 59.0101 47.4002 60.0001 50.0002 60.0001C52.6002 60.0001 54.9602 59.0101 56.7402 57.3801C56.6402 56.4401 56.0402 55.5201 54.9702 54.8001C52.2302 52.9801 47.7502 52.9801 45.0302 54.8001C43.9602 55.5201 43.3602 56.4401 43.2602 57.3801Z" stroke="#292D32" stroke-width="2" stroke-linecap="round" stroke-linejoin="round"/>
<path d="M50 60C44.4772 60 40 55.5228 40 50C40 44.4772 44.4772 40 50 40C55.5228 40 60 44.4772 60 50C60 55.5228 55.5228 60 50 60Z" stroke="#292D32" stroke-width="2" stroke-linecap="round" stroke-linejoin="round"/>
</g>
</svg>
