<svg width="24" height="24" viewBox="0 0 24 24" fill="none" xmlns="http://www.w3.org/2000/svg">
<path d="M16.0002 22H8.00017C3.98017 22 3.26017 20.39 3.05017 18.43L2.30017 10.43C2.03017 7.99 2.73017 6 7.00017 6H17.0002C21.2702 6 21.9702 7.99 21.7002 10.43L20.9502 18.43C20.7402 20.39 20.0202 22 16.0002 22Z" stroke="#6A7686" stroke-width="2" stroke-miterlimit="10" stroke-linecap="round" stroke-linejoin="round"/>
<path d="M16 6V5.2C16 3.43 16 2 12.8 2H11.2C8 2 8 3.43 8 5.2V6" stroke="#6A7686" stroke-width="2" stroke-miterlimit="10" stroke-linecap="round" stroke-linejoin="round"/>
<path d="M10 13V14C10 14.01 10 14.01 10 14.02C10 15.11 10.01 16 12 16C13.98 16 14 15.12 14 14.03V13C14 12 14 12 13 12H11C10 12 10 12 10 13Z" stroke="#6A7686" stroke-width="2" stroke-miterlimit="10" stroke-linecap="round" stroke-linejoin="round"/>
<path d="M2.35 11C4.66 12.68 7.3 13.68 10 14.02" stroke="#6A7686" stroke-width="1.5" stroke-miterlimit="10" stroke-linecap="round" stroke-linejoin="round"/>
<path d="M21.3799 11.27C19.1299 12.81 16.5899 13.74 13.9999 14.03" stroke="#6A7686" stroke-width="1.5" stroke-miterlimit="10" stroke-linecap="round" stroke-linejoin="round"/>
</svg>
