<svg width="24" height="25" viewBox="0 0 24 25" fill="none" xmlns="http://www.w3.org/2000/svg">
<path d="M21.09 7.48002C20.24 6.54002 18.82 6.07002 16.76 6.07002H16.52V6.03002C16.52 4.35002 16.52 2.27002 12.76 2.27002H11.24C7.47998 2.27002 7.47998 4.36002 7.47998 6.03002V6.08002H7.23998C5.16998 6.08002 3.75998 6.55002 2.90998 7.49002C1.91998 8.59002 1.94998 10.07 2.04998 11.08L2.05998 11.15L2.13743 11.9633C2.1517 12.1131 2.23236 12.2484 2.35825 12.3307C2.59806 12.4877 2.9994 12.7464 3.23998 12.88C3.37998 12.97 3.52998 13.05 3.67998 13.13C5.38998 14.07 7.26998 14.7 9.17998 15.01C9.26998 15.95 9.67998 17.05 11.87 17.05C14.06 17.05 14.49 15.96 14.56 14.99C16.6 14.66 18.57 13.95 20.35 12.91C20.41 12.88 20.45 12.85 20.5 12.82C20.8967 12.5958 21.3083 12.3195 21.6834 12.0489C21.7965 11.9673 21.8687 11.8413 21.8841 11.7028L21.9 11.56L21.95 11.09C21.96 11.03 21.96 10.98 21.97 10.91C22.05 9.90002 22.03 8.52002 21.09 7.48002ZM13.09 14.33C13.09 15.39 13.09 15.55 11.86 15.55C10.63 15.55 10.63 15.36 10.63 14.34V13.08H13.09V14.33ZM8.90998 6.07002V6.03002C8.90998 4.33002 8.90998 3.70002 11.24 3.70002H12.76C15.09 3.70002 15.09 4.34002 15.09 6.03002V6.08002H8.90998V6.07002Z" fill="#1053D5"/>
<path d="M20.8735 14.2344C21.2271 14.0661 21.6344 14.3464 21.599 14.7364L21.24 18.6902C21.03 20.6902 20.21 22.7302 15.81 22.7302H8.19003C3.79003 22.7302 2.97003 20.6902 2.76003 18.7002L2.41932 14.9524C2.38427 14.5669 2.78223 14.287 3.13487 14.4465C4.27428 14.962 6.37742 15.8766 7.6766 16.2169C7.8409 16.2599 7.9738 16.3775 8.04574 16.5314C8.65271 17.8295 9.96914 18.5202 11.87 18.5202C13.7521 18.5202 15.0852 17.8029 15.6942 16.5016C15.7662 16.3476 15.8992 16.2301 16.0636 16.1868C17.4432 15.8238 19.6818 14.8015 20.8735 14.2344Z" fill="#1053D5"/>
</svg>
