<svg width="25" height="24" viewBox="0 0 25 24" fill="none" xmlns="http://www.w3.org/2000/svg">
<path d="M22.6365 18.33C22.6365 18.69 22.5565 19.06 22.3865 19.42C22.2165 19.78 21.9965 20.12 21.7065 20.44C21.2165 20.98 20.6765 21.37 20.0665 21.62C19.4665 21.87 18.8165 22 18.1165 22C17.0965 22 16.0065 21.76 14.8565 21.27C13.7065 20.78 12.5565 20.12 11.4165 19.29C10.2665 18.45 9.1765 17.52 8.1365 16.49C7.1065 15.45 6.1765 14.36 5.3465 13.22C4.5265 12.08 3.8665 10.94 3.3865 9.81C2.9065 8.67 2.6665 7.58 2.6665 6.54C2.6665 5.86 2.7865 5.21 3.0265 4.61C3.2665 4 3.6465 3.44 4.1765 2.94C4.8165 2.31 5.5165 2 6.2565 2C6.5365 2 6.8165 2.06 7.0665 2.18C7.3265 2.3 7.5565 2.48 7.7365 2.74L10.0565 6.01C10.2365 6.26 10.3665 6.49 10.4565 6.71C10.5465 6.92 10.5965 7.13 10.5965 7.32C10.5965 7.56 10.5265 7.8 10.3865 8.03C10.2565 8.26 10.0665 8.5 9.8265 8.74L9.0665 9.53C8.9565 9.64 8.9065 9.77 8.9065 9.93C8.9065 10.01 8.9165 10.08 8.9365 10.16C8.9665 10.24 8.9965 10.3 9.0165 10.36C9.1965 10.69 9.5065 11.12 9.9465 11.64C10.3965 12.16 10.8765 12.69 11.3965 13.22C11.9365 13.75 12.4565 14.24 12.9865 14.69C13.5065 15.13 13.9365 15.43 14.2765 15.61C14.3265 15.63 14.3865 15.66 14.4565 15.69C14.5365 15.72 14.6165 15.73 14.7065 15.73C14.8765 15.73 15.0065 15.67 15.1165 15.56L15.8765 14.81C16.1265 14.56 16.3665 14.37 16.5965 14.25C16.8265 14.11 17.0565 14.04 17.3065 14.04C17.4965 14.04 17.6965 14.08 17.9165 14.17C18.1365 14.26 18.3665 14.39 18.6165 14.56L21.9265 16.91C22.1865 17.09 22.3665 17.3 22.4765 17.55C22.5765 17.8 22.6365 18.05 22.6365 18.33Z" stroke="#292D32" stroke-width="2" stroke-miterlimit="10"/>
</svg>
