<svg width="44" height="44" viewBox="0 0 44 44" fill="none" xmlns="http://www.w3.org/2000/svg">
<rect width="44" height="44" rx="22" fill="#1053D5"/>
<path d="M21.2083 24.4583L19.6666 26C19.3416 26.325 18.825 26.325 18.4916 26.0083C18.4 25.9166 18.3083 25.8333 18.2166 25.7416C17.3583 24.875 16.5833 23.9666 15.8916 23.0166C15.2083 22.0666 14.6583 21.1166 14.2583 20.175C13.8666 19.225 13.6666 18.3166 13.6666 17.45C13.6666 16.8833 13.7666 16.3416 13.9666 15.8416C14.1666 15.3333 14.4833 14.8666 14.925 14.45C15.4583 13.925 16.0416 13.6666 16.6583 13.6666C16.8916 13.6666 17.125 13.7166 17.3333 13.8166C17.55 13.9166 17.7416 14.0666 17.8916 14.2833L19.825 17.0083C19.975 17.2166 20.0833 17.4083 20.1583 17.5916C20.2333 17.7666 20.275 17.9416 20.275 18.1C20.275 18.3 20.2166 18.5 20.1 18.6916C19.9916 18.8833 19.8333 19.0833 19.6333 19.2833L19 19.9416C18.9083 20.0333 18.8666 20.1416 18.8666 20.275C18.8666 20.3416 18.875 20.4 18.8916 20.4666C18.9166 20.5333 18.9416 20.5833 18.9583 20.6333C19.1083 20.9083 19.3666 21.2666 19.7333 21.7C20.1083 22.1333 20.5083 22.575 20.9416 23.0166C21.025 23.1 21.1166 23.1833 21.2 23.2666C21.5333 23.5916 21.5416 24.125 21.2083 24.4583Z" fill="white"/>
<path d="M30.3083 27.275C30.3083 27.5083 30.2667 27.75 30.1833 27.9833C30.1583 28.05 30.1333 28.1166 30.1 28.1833C29.9583 28.4833 29.775 28.7666 29.5333 29.0333C29.125 29.4833 28.675 29.8083 28.1667 30.0166C28.1583 30.0166 28.15 30.025 28.1417 30.025C27.65 30.225 27.1167 30.3333 26.5417 30.3333C25.6917 30.3333 24.7833 30.1333 23.825 29.725C22.8667 29.3166 21.9083 28.7666 20.9583 28.075C20.6333 27.8333 20.3083 27.5916 20 27.3333L22.725 24.6083C22.9583 24.7833 23.1667 24.9166 23.3417 25.0083C23.3833 25.025 23.4333 25.05 23.4917 25.075C23.5583 25.1 23.625 25.1083 23.7 25.1083C23.8417 25.1083 23.95 25.0583 24.0417 24.9666L24.675 24.3416C24.8833 24.1333 25.0833 23.975 25.275 23.875C25.4667 23.7583 25.6583 23.7 25.8667 23.7C26.025 23.7 26.1917 23.7333 26.375 23.8083C26.5583 23.8833 26.75 23.9916 26.9583 24.1333L29.7167 26.0916C29.9333 26.2416 30.0833 26.4166 30.175 26.625C30.2583 26.8333 30.3083 27.0416 30.3083 27.275Z" fill="white"/>
</svg>
