<svg width="37" height="36" viewBox="0 0 37 36" fill="none" xmlns="http://www.w3.org/2000/svg">
<path d="M21.7749 3H14.7249C13.1649 3 11.8899 4.26 11.8899 5.82V7.23C11.8899 8.79 13.1499 10.05 14.7099 10.05H21.7749C23.3349 10.05 24.5949 8.79 24.5949 7.23V5.82C24.6099 4.26 23.3349 3 21.7749 3Z" fill="#FF7020"/>
<path d="M26.1101 7.22997C26.1101 9.61497 24.1601 11.565 21.7751 11.565H14.7251C12.3401 11.565 10.3901 9.61497 10.3901 7.22997C10.3901 6.38997 9.49006 5.86497 8.74006 6.25497C6.62506 7.37997 5.18506 9.61497 5.18506 12.18V26.295C5.18506 29.985 8.20006 33 11.8901 33H24.6101C28.3001 33 31.3151 29.985 31.3151 26.295V12.18C31.3151 9.61497 29.8751 7.37997 27.7601 6.25497C27.0101 5.86497 26.1101 6.38997 26.1101 7.22997ZM23.2601 19.095L17.2601 25.095C17.0351 25.32 16.7501 25.425 16.4651 25.425C16.1801 25.425 15.8951 25.32 15.6701 25.095L13.4201 22.845C12.9851 22.41 12.9851 21.69 13.4201 21.255C13.8551 20.82 14.5751 20.82 15.0101 21.255L16.4651 22.71L21.6701 17.505C22.1051 17.07 22.8251 17.07 23.2601 17.505C23.6951 17.94 23.6951 18.66 23.2601 19.095Z" fill="#FF7020"/>
</svg>
