<svg width="12" height="12" viewBox="0 0 12 12" fill="none" xmlns="http://www.w3.org/2000/svg">
<path d="M8.5 11H3.5C3.295 11 3.125 10.83 3.125 10.625C3.125 10.42 3.295 10.25 3.5 10.25H8.5C8.705 10.25 8.875 10.42 8.875 10.625C8.875 10.83 8.705 11 8.5 11Z" fill="white"/>
<path d="M10.175 2.75999L8.175 4.18999C7.91 4.37999 7.53 4.26499 7.415 3.95999L6.47 1.43999C6.31 1.00499 5.695 1.00499 5.535 1.43999L4.585 3.95499C4.47 4.26499 4.095 4.37999 3.83 4.18499L1.83 2.75499C1.43 2.47499 0.899999 2.86999 1.065 3.33499L3.145 9.15999C3.215 9.35999 3.405 9.48999 3.615 9.48999H8.38C8.59 9.48999 8.78 9.35499 8.85 9.15999L10.93 3.33499C11.1 2.86999 10.57 2.47499 10.175 2.75999ZM7.25 7.37499H4.75C4.545 7.37499 4.375 7.20499 4.375 6.99999C4.375 6.79499 4.545 6.62499 4.75 6.62499H7.25C7.455 6.62499 7.625 6.79499 7.625 6.99999C7.625 7.20499 7.455 7.37499 7.25 7.37499Z" fill="white"/>
</svg>
