<svg width="25" height="24" viewBox="0 0 25 24" fill="none" xmlns="http://www.w3.org/2000/svg">
<path opacity="0.4" d="M16.315 4H7.935C4.295 4 2.125 6.17 2.125 9.81V16.18C2.125 19.83 4.295 22 7.935 22H16.305C19.945 22 22.115 19.83 22.115 16.19V9.81C22.125 6.17 19.955 4 16.315 4Z" fill="#6A7686"/>
<path d="M21.425 12.23H17.945C16.965 12.23 16.095 12.77 15.655 13.65L14.815 15.31C14.615 15.71 14.215 15.96 13.775 15.96H10.495C10.185 15.96 9.745 15.89 9.455 15.31L8.615 13.66C8.175 12.79 7.295 12.24 6.325 12.24H2.825C2.435 12.24 2.125 12.55 2.125 12.94V16.2C2.125 19.83 4.305 22 7.945 22H16.325C19.755 22 21.865 20.12 22.125 16.78V12.93C22.125 12.55 21.815 12.23 21.425 12.23Z" fill="#6A7686"/>
<path d="M14.655 6.47C14.365 6.18 13.885 6.18 13.595 6.47L12.875 7.19V2C12.875 1.59 12.535 1.25 12.125 1.25C11.715 1.25 11.375 1.59 11.375 2V7.19L10.655 6.47C10.365 6.18 9.885 6.18 9.595 6.47C9.305 6.76 9.305 7.24 9.595 7.53L11.595 9.53C11.605 9.54 11.615 9.54 11.615 9.55C11.675 9.61 11.755 9.66 11.835 9.7C11.935 9.73 12.025 9.75 12.125 9.75C12.225 9.75 12.315 9.73 12.405 9.69C12.495 9.65 12.575 9.6 12.655 9.53L14.655 7.53C14.945 7.24 14.945 6.76 14.655 6.47Z" fill="#6A7686"/>
</svg>
