<svg width="25" height="24" viewBox="0 0 25 24" fill="none" xmlns="http://www.w3.org/2000/svg">
<g clip-path="url(#clip0_2053_10352)">
<path d="M5.68799 10.4836C5.68799 10.4836 6.96969 9.64383 7.50469 8.95063C8.13026 8.14009 9.09425 7.07703 9.09425 7.07703C9.09425 7.07703 10.8803 7.80847 12.5005 7.92857C13.9673 8.0373 14.4542 7.22984 15.9068 7.4177C18.0115 7.68992 19.3134 10.4836 19.3134 10.4836" stroke="#1053D5" stroke-width="2" stroke-linecap="round" stroke-linejoin="round"/>
<path d="M19.3134 14.4657V11.7406V9.69684C19.3134 5.9343 16.2632 2.88416 12.5007 2.88416V2.88416C8.73813 2.88416 5.68799 5.93429 5.68799 9.69684V13.7845C5.68799 17.547 8.73813 20.5971 12.5007 20.5971V20.5971" stroke="#1053D5" stroke-width="2" stroke-linecap="round"/>
<path d="M19.3136 11.741H19.6896C20.4488 11.741 21.0644 12.3565 21.0644 13.1158C21.0644 13.8751 20.4488 14.4906 19.6896 14.4906H19.3136V11.741Z" fill="#1053D5" stroke="#1053D5" stroke-width="2" stroke-linejoin="round"/>
<path d="M5.6886 11.741H5.31264C4.55335 11.741 3.93783 12.3565 3.93783 13.1158C3.93783 13.8751 4.55335 14.4906 5.31264 14.4906H5.6886V11.741Z" fill="#1053D5" stroke="#1053D5" stroke-width="2" stroke-linejoin="round"/>
<rect x="-0.701424" y="0.701424" width="1.40285" height="1.40285" rx="0.701424" transform="matrix(-1 0 0 1 13.1819 19.1943)" fill="#1053D5" stroke="#1053D5" stroke-width="1.40285"/>
<circle cx="10" cy="12.1165" r="1.25" fill="#1053D5"/>
<circle cx="15" cy="12.1165" r="1.25" fill="#1053D5"/>
</g>
<defs>
<clipPath id="clip0_2053_10352">
<rect width="20" height="20" fill="white" transform="translate(2.5 2)"/>
</clipPath>
</defs>
</svg>
