<svg width="24" height="24" viewBox="0 0 24 24" fill="none" xmlns="http://www.w3.org/2000/svg">
<g clip-path="url(#clip0_41_4768)">
<path d="M5.18805 10.4836C5.18805 10.4836 6.46975 9.64383 7.00475 8.95063C7.63032 8.14009 8.59431 7.07703 8.59431 7.07703C8.59431 7.07703 10.3804 7.80847 12.0005 7.92857C13.4674 8.0373 13.9543 7.22984 15.4068 7.4177C17.5116 7.68992 18.8134 10.4836 18.8134 10.4836" stroke="#292D32" stroke-width="2" stroke-linecap="round" stroke-linejoin="round"/>
<path d="M18.8134 14.4657V11.7406V9.69684C18.8134 5.9343 15.7633 2.88416 12.0007 2.88416V2.88416C8.23819 2.88416 5.18805 5.93429 5.18805 9.69684V13.7845C5.18805 17.547 8.23819 20.5971 12.0007 20.5971V20.5971" stroke="#292D32" stroke-width="2" stroke-linecap="round"/>
<path d="M18.8135 11.741H19.1895C19.9488 11.741 20.5643 12.3565 20.5643 13.1158C20.5643 13.8751 19.9488 14.4906 19.1895 14.4906H18.8135V11.741Z" fill="#292D32" stroke="#292D32" stroke-width="2" stroke-linejoin="round"/>
<path d="M5.18866 11.741H4.8127C4.05342 11.741 3.43789 12.3565 3.43789 13.1158C3.43789 13.8751 4.05341 14.4906 4.8127 14.4906H5.18866V11.741Z" fill="#292D32" stroke="#292D32" stroke-width="2" stroke-linejoin="round"/>
<rect x="-0.701424" y="0.701424" width="1.40285" height="1.40285" rx="0.701424" transform="matrix(-1 0 0 1 12.6819 19.1943)" fill="#292D32" stroke="#292D32" stroke-width="1.40285"/>
<circle cx="9.5" cy="12.1165" r="1.25" fill="#292D32"/>
<circle cx="14.5" cy="12.1165" r="1.25" fill="#292D32"/>
</g>
<defs>
<clipPath id="clip0_41_4768">
<rect width="20" height="20" fill="white" transform="translate(2 2)"/>
</clipPath>
</defs>
</svg>
