<svg width="25" height="24" viewBox="0 0 25 24" fill="none" xmlns="http://www.w3.org/2000/svg">
<path opacity="0.4" d="M21.455 8.01002L14.905 2.77002C13.625 1.75002 11.625 1.74002 10.355 2.76002L3.805 8.01002C2.865 8.76002 2.295 10.26 2.495 11.44L3.755 18.98C4.045 20.67 5.615 22 7.325 22H17.925C19.615 22 21.215 20.64 21.505 18.97L22.765 11.43C22.945 10.26 22.375 8.76002 21.455 8.01002Z" fill="#1053D5"/>
<path d="M12.625 18.75C12.215 18.75 11.875 18.41 11.875 18V15C11.875 14.59 12.215 14.25 12.625 14.25C13.035 14.25 13.375 14.59 13.375 15V18C13.375 18.41 13.035 18.75 12.625 18.75Z" fill="#1053D5"/>
</svg>
