<svg width="20" height="20" viewBox="0 0 20 20" fill="none" xmlns="http://www.w3.org/2000/svg">
<path d="M1.66666 18.2084H18.3333C18.3635 18.2084 18.3948 18.2207 18.4204 18.2463C18.446 18.2719 18.4583 18.3032 18.4583 18.3334C18.4583 18.3635 18.446 18.3948 18.4204 18.4204C18.3948 18.4461 18.3635 18.4584 18.3333 18.4584H1.66666C1.63651 18.4584 1.60523 18.4461 1.57958 18.4204C1.55394 18.3948 1.54166 18.3635 1.54166 18.3334C1.54166 18.3032 1.55394 18.2719 1.57958 18.2463C1.60523 18.2207 1.63651 18.2084 1.66666 18.2084Z" fill="white" stroke="white"/>
<path d="M5.83333 2.16663H14.1667C15.3142 2.16663 15.9916 2.50506 16.3938 2.96983C16.8078 3.44827 17.0043 4.14543 17.0083 5.00119V17.8333H13.0083V13.2833C13.0083 12.5704 12.4227 12 11.725 12H8.28333C7.57386 12 7 12.5738 7 13.2833V17.8333H3V4.99996C3 4.14437 3.19478 3.4475 3.60759 2.96946C4.00857 2.50513 4.68569 2.16663 5.83333 2.16663ZM11.125 9.16663V8.20829H12.0833C12.7011 8.20829 13.2083 7.7011 13.2083 7.08329C13.2083 6.46548 12.7011 5.95829 12.0833 5.95829H11.125V4.99996C11.125 4.38215 10.6178 3.87496 10 3.87496C9.38219 3.87496 8.875 4.38215 8.875 4.99996V5.95829H7.91667C7.29886 5.95829 6.79167 6.46548 6.79167 7.08329C6.79167 7.7011 7.29886 8.20829 7.91667 8.20829H8.875V9.16663C8.875 9.78444 9.38219 10.2916 10 10.2916C10.6178 10.2916 11.125 9.78444 11.125 9.16663Z" fill="white" stroke="white"/>
</svg>
