<svg width="24" height="24" viewBox="0 0 24 24" fill="none" xmlns="http://www.w3.org/2000/svg">
<path opacity="0.4" d="M16.19 2H7.82001C4.18001 2 2.01001 4.17 2.01001 7.81V16.18C2.01001 19.82 4.18001 21.99 7.82001 21.99H16.19C19.83 21.99 22 19.82 22 16.18V7.81C22 4.17 19.83 2 16.19 2Z" fill="#6A7686"/>
<path d="M17 15.9695C15.69 15.9695 14.44 15.3696 13.44 14.2596C14.43 12.9896 15.07 11.4196 15.21 9.69955H16.99C17.4 9.69955 17.74 9.35955 17.74 8.94955C17.74 8.53955 17.4 8.19955 16.99 8.19955H14.56C14.54 8.19955 14.52 8.18954 14.5 8.18954C14.48 8.18954 14.46 8.19955 14.44 8.19955H12.75V7.26953C12.75 6.85953 12.41 6.51953 12 6.51953C11.59 6.51953 11.25 6.85953 11.25 7.26953V8.19955H7.01001C6.60001 8.19955 6.26001 8.53955 6.26001 8.94955C6.26001 9.35955 6.60001 9.69955 7.01001 9.69955H12H13.7C13.33 13.2196 10.47 15.9695 6.98999 15.9695C6.57999 15.9695 6.23999 16.3095 6.23999 16.7195C6.23999 17.1295 6.57999 17.4695 6.98999 17.4695C9.05999 17.4695 10.95 16.6695 12.4 15.3595C13.67 16.7195 15.28 17.4695 16.99 17.4695C17.4 17.4695 17.74 17.1295 17.74 16.7195C17.74 16.3095 17.41 15.9695 17 15.9695Z" fill="#6A7686"/>
</svg>
