<svg width="16" height="16" viewBox="0 0 16 16" fill="none" xmlns="http://www.w3.org/2000/svg">
<path d="M13.7467 5.63332C13.0467 2.55332 10.36 1.16666 8 1.16666C8 1.16666 8 1.16666 7.99334 1.16666C5.64 1.16666 2.94667 2.54666 2.24667 5.62666C1.46667 9.06666 3.57334 11.98 5.48 13.8133C6.18667 14.4933 7.09334 14.8333 8 14.8333C8.90667 14.8333 9.81334 14.4933 10.5133 13.8133C12.42 11.98 14.5267 9.07332 13.7467 5.63332ZM8 8.97332C6.84 8.97332 5.9 8.03332 5.9 6.87332C5.9 5.71332 6.84 4.77332 8 4.77332C9.16 4.77332 10.1 5.71332 10.1 6.87332C10.1 8.03332 9.16 8.97332 8 8.97332Z" fill="#6A7686"/>
</svg>
