<svg width="37" height="36" viewBox="0 0 37 36" fill="none" xmlns="http://www.w3.org/2000/svg">
<path d="M28.4499 14.865C26.7549 14.865 25.24 15.69 24.295 16.95C23.35 15.69 21.835 14.865 20.14 14.865C17.275 14.865 14.95 17.205 14.95 20.085C14.95 21.195 15.13 22.23 15.43 23.175C16.9 27.84 21.46 30.645 23.71 31.41C24.025 31.515 24.55 31.515 24.865 31.41C27.115 30.645 31.675 27.855 33.145 23.175C33.46 22.215 33.625 21.195 33.625 20.085C33.64 17.205 31.3149 14.865 28.4499 14.865Z" fill="#0F943E"/>
<path d="M31.375 12.51C31.375 12.855 31.03 13.08 30.7 12.99C28.675 12.465 26.455 12.9 24.775 14.1C24.445 14.34 23.995 14.34 23.68 14.1C22.495 13.23 21.055 12.75 19.54 12.75C15.67 12.75 12.52 15.915 12.52 19.815C12.52 24.045 14.545 27.21 16.585 29.325C16.69 29.43 16.6 29.61 16.465 29.55C12.37 28.155 3.25 22.365 3.25 12.51C3.25 8.16002 6.745 4.65002 11.065 4.65002C13.63 4.65002 15.895 5.88002 17.32 7.78502C18.76 5.88002 21.025 4.65002 23.575 4.65002C27.88 4.65002 31.375 8.16002 31.375 12.51Z" fill="#0F943E"/>
</svg>
