<svg width="60" height="60" viewBox="0 0 60 60" fill="none" xmlns="http://www.w3.org/2000/svg">
<rect width="60" height="60" rx="30" fill="#1053D5"/>
<path d="M35 40H25C24.59 40 24.25 39.66 24.25 39.25C24.25 38.84 24.59 38.5 25 38.5H35C35.41 38.5 35.75 38.84 35.75 39.25C35.75 39.66 35.41 40 35 40Z" fill="white"/>
<path d="M38.35 23.52L34.35 26.38C33.82 26.76 33.06 26.53 32.83 25.92L30.94 20.88C30.62 20.01 29.39 20.01 29.07 20.88L27.17 25.91C26.94 26.53 26.19 26.76 25.66 26.37L21.66 23.51C20.86 22.95 19.8 23.74 20.13 24.67L24.29 36.32C24.43 36.72 24.81 36.98 25.23 36.98H34.76C35.18 36.98 35.56 36.71 35.7 36.32L39.86 24.67C40.2 23.74 39.14 22.95 38.35 23.52ZM32.5 32.75H27.5C27.09 32.75 26.75 32.41 26.75 32C26.75 31.59 27.09 31.25 27.5 31.25H32.5C32.91 31.25 33.25 31.59 33.25 32C33.25 32.41 32.91 32.75 32.5 32.75Z" fill="white"/>
</svg>
