<svg width="52" height="52" viewBox="0 0 52 52" fill="none" xmlns="http://www.w3.org/2000/svg">
<path d="M12.935 2.1665H6.565C3.81333 2.1665 2.16666 3.81317 2.16666 6.56484V12.9348C2.16666 15.6865 3.81333 17.3332 6.565 17.3332H12.935C15.6867 17.3332 17.3333 15.6865 17.3333 12.9348V6.56484C17.3333 3.81317 15.6867 2.1665 12.935 2.1665ZM14.0183 12.0465C14.56 12.5882 14.56 13.4765 14.0183 14.0182C13.7367 14.2782 13.3683 14.4082 13.0217 14.4082C12.675 14.4082 12.3283 14.2782 12.0467 14.0182L9.72833 11.7215L7.475 14.0182C7.19333 14.2782 6.84666 14.4082 6.45666 14.4082C6.11 14.4082 5.76333 14.2782 5.48166 14.0182C4.94 13.4765 4.94 12.5882 5.48166 12.0465L7.8 9.74984L5.50333 7.47484C4.96166 6.93317 4.96166 6.04484 5.50333 5.50317C6.045 4.9615 6.93333 4.9615 7.475 5.50317L9.72833 7.79984L12.025 5.50317C12.5667 4.9615 13.455 4.9615 13.9967 5.50317C14.5383 6.04484 14.5383 6.93317 13.9967 7.47484L11.7217 9.74984L14.0183 12.0465Z" fill="white"/>
<path d="M46.5833 34.2768C46.5833 34.6018 46.475 34.9268 46.1933 35.2085C43.0517 38.3718 37.4617 44.0051 34.255 47.2335C33.9733 47.5368 33.605 47.6668 33.2367 47.6668C32.5217 47.6668 31.8283 47.1035 31.8283 46.2801V38.6968C31.8283 35.5335 34.515 32.9118 37.8083 32.9118C39.8667 32.8901 42.7267 32.8901 45.175 32.8901C46.02 32.8901 46.5833 33.5618 46.5833 34.2768Z" fill="white"/>
<path d="M46.5833 34.2768C46.5833 34.6018 46.475 34.9268 46.1933 35.2085C43.0517 38.3718 37.4617 44.0051 34.255 47.2335C33.9733 47.5368 33.605 47.6668 33.2367 47.6668C32.5217 47.6668 31.8283 47.1035 31.8283 46.2801V38.6968C31.8283 35.5335 34.515 32.9118 37.8083 32.9118C39.8667 32.8901 42.7267 32.8901 45.175 32.8901C46.02 32.8901 46.5833 33.5618 46.5833 34.2768Z" fill="white"/>
<path d="M36.0317 4.3335H22.75C21.5583 4.3335 20.5833 5.3085 20.5833 6.50016V14.0835C20.5833 17.6802 17.68 20.5835 14.0833 20.5835H7.58333C6.39166 20.5835 5.41666 21.5585 5.41666 22.7502V37.1152C5.41666 42.9435 10.14 47.6668 15.9683 47.6668H26.4117C27.6033 47.6668 28.5783 46.6918 28.5783 45.5002V38.6968C28.5783 33.7135 32.7167 29.6618 37.8083 29.6618C38.9567 29.6402 41.7517 29.6402 44.4167 29.6402C45.6083 29.6402 46.5833 28.6868 46.5833 27.4735V14.8852C46.5833 9.05683 41.86 4.3335 36.0317 4.3335ZM18.8933 36.8552H13.1733C12.285 36.8552 11.5483 36.1185 11.5483 35.2302C11.5483 34.3202 12.285 33.5835 13.1733 33.5835H18.8933C19.825 33.5835 20.5183 34.3202 20.5183 35.2302C20.5183 36.1185 19.825 36.8552 18.8933 36.8552ZM24.9383 28.8168H13.1733C12.285 28.8168 11.5483 28.0802 11.5483 27.1918C11.5483 26.2818 12.285 25.5452 13.1733 25.5452H24.9383C25.8267 25.5452 26.585 26.2818 26.585 27.1918C26.585 28.0802 25.8267 28.8168 24.9383 28.8168Z" fill="white"/>
</svg>
