<svg width="20" height="20" viewBox="0 0 20 20" fill="none" xmlns="http://www.w3.org/2000/svg">
<path d="M7.63333 9.05835C7.55 9.05002 7.45 9.05002 7.35833 9.05835C5.375 8.99169 3.8 7.36669 3.8 5.36669C3.8 3.32502 5.45 1.66669 7.5 1.66669C9.54167 1.66669 11.2 3.32502 11.2 5.36669C11.1917 7.36669 9.61667 8.99169 7.63333 9.05835Z" stroke="#6A7686" stroke-width="2" stroke-linecap="round" stroke-linejoin="round"/>
<path d="M13.675 3.33331C15.2917 3.33331 16.5917 4.64165 16.5917 6.24998C16.5917 7.82498 15.3417 9.10831 13.7833 9.16665C13.7167 9.15831 13.6417 9.15831 13.5667 9.16665" stroke="#6A7686" stroke-width="2" stroke-linecap="round" stroke-linejoin="round"/>
<path d="M3.46667 12.1333C1.45 13.4833 1.45 15.6833 3.46667 17.025C5.75833 18.5583 9.51667 18.5583 11.8083 17.025C13.825 15.675 13.825 13.475 11.8083 12.1333C9.525 10.6083 5.76667 10.6083 3.46667 12.1333Z" stroke="#6A7686" stroke-width="2" stroke-linecap="round" stroke-linejoin="round"/>
<path d="M15.2833 16.6667C15.8833 16.5417 16.45 16.3 16.9167 15.9417C18.2167 14.9667 18.2167 13.3584 16.9167 12.3834C16.4583 12.0334 15.9 11.8 15.3083 11.6667" stroke="#6A7686" stroke-width="2" stroke-linecap="round" stroke-linejoin="round"/>
</svg>
