<svg width="24" height="24" viewBox="0 0 24 24" fill="none" xmlns="http://www.w3.org/2000/svg">
<path d="M2 6V8.42C2 10 3.00002 11 4.58002 11H8V4.01C8 2.9 7.08998 2 5.97998 2C4.88998 2.01 3.88998 2.45 3.16998 3.17C2.44998 3.9 2 4.9 2 6Z" stroke="#6A7686" stroke-width="2" stroke-miterlimit="10" stroke-linecap="round" stroke-linejoin="round"/>
<path d="M22 7V21C22 21.83 21.06 22.3 20.4 21.8L18.69 20.52C18.29 20.22 17.73 20.26 17.37 20.62L15.71 22.29C15.32 22.68 14.68 22.68 14.29 22.29L12.61 20.61C12.26 20.26 11.7 20.22 11.31 20.52L9.59998 21.8C8.93998 22.29 8 21.82 8 21V4C8 2.9 7.1 2 6 2H17H18C21 2 22 3.79 22 6V7Z" stroke="#6A7686" stroke-width="2" stroke-miterlimit="10" stroke-linecap="round" stroke-linejoin="round"/>
<path d="M18 9H12" stroke="#6A7686" stroke-width="2" stroke-linecap="round" stroke-linejoin="round"/>
<path d="M17.25 13H12.75" stroke="#6A7686" stroke-width="2" stroke-linecap="round" stroke-linejoin="round"/>
</svg>
