<svg width="25" height="24" viewBox="0 0 25 24" fill="none" xmlns="http://www.w3.org/2000/svg">
<path opacity="0.4" d="M2.375 12.8801V11.1201C2.375 10.0801 3.225 9.22006 4.275 9.22006C6.085 9.22006 6.825 7.94006 5.915 6.37006C5.395 5.47006 5.705 4.30006 6.615 3.78006L8.345 2.79006C9.135 2.32006 10.155 2.60006 10.625 3.39006L10.735 3.58006C11.635 5.15006 13.115 5.15006 14.025 3.58006L14.135 3.39006C14.605 2.60006 15.625 2.32006 16.415 2.79006L18.145 3.78006C19.055 4.30006 19.365 5.47006 18.845 6.37006C17.935 7.94006 18.675 9.22006 20.485 9.22006C21.525 9.22006 22.385 10.0701 22.385 11.1201V12.8801C22.385 13.9201 21.535 14.7801 20.485 14.7801C18.675 14.7801 17.935 16.0601 18.845 17.6301C19.365 18.5401 19.055 19.7001 18.145 20.2201L16.415 21.2101C15.625 21.6801 14.605 21.4001 14.135 20.6101L14.025 20.4201C13.125 18.8501 11.645 18.8501 10.735 20.4201L10.625 20.6101C10.155 21.4001 9.135 21.6801 8.345 21.2101L6.615 20.2201C5.705 19.7001 5.395 18.5301 5.915 17.6301C6.825 16.0601 6.085 14.7801 4.275 14.7801C3.225 14.7801 2.375 13.9201 2.375 12.8801Z" fill="#6A7686"/>
<path d="M12.375 15.25C14.1699 15.25 15.625 13.7949 15.625 12C15.625 10.2051 14.1699 8.75 12.375 8.75C10.5801 8.75 9.125 10.2051 9.125 12C9.125 13.7949 10.5801 15.25 12.375 15.25Z" fill="#6A7686"/>
</svg>
