<svg width="24" height="25" viewBox="0 0 24 25" fill="none" xmlns="http://www.w3.org/2000/svg">
<path d="M5.73998 16.5C5.84998 16.01 5.64998 15.31 5.29998 14.96L2.86998 12.53C2.10998 11.77 1.80998 10.96 2.02998 10.26C2.25998 9.56 2.96998 9.08 4.02998 8.9L7.14998 8.38C7.59998 8.3 8.14998 7.9 8.35998 7.49L10.08 4.04C10.58 3.05 11.26 2.5 12 2.5C12.74 2.5 13.42 3.05 13.92 4.04L15.64 7.49C15.77 7.75 16.04 8 16.33 8.17L5.55998 18.94C5.41998 19.08 5.17998 18.95 5.21998 18.75L5.73998 16.5Z" fill="#FF7020"/>
<path d="M18.7 14.9599C18.34 15.3199 18.14 16.0099 18.26 16.4999L18.95 19.5099C19.24 20.7599 19.06 21.6999 18.44 22.1499C18.19 22.3299 17.89 22.4199 17.54 22.4199C17.03 22.4199 16.43 22.2299 15.77 21.8399L12.84 20.0999C12.38 19.8299 11.62 19.8299 11.16 20.0999L8.22999 21.8399C7.11999 22.4899 6.16999 22.5999 5.55999 22.1499C5.32999 21.9799 5.15999 21.7499 5.04999 21.4499L17.21 9.2899C17.67 8.8299 18.32 8.6199 18.95 8.7299L19.96 8.8999C21.02 9.0799 21.73 9.5599 21.96 10.2599C22.18 10.9599 21.88 11.7699 21.12 12.5299L18.7 14.9599Z" fill="#FF7020"/>
</svg>
