<svg width="20" height="21" viewBox="0 0 20 21" fill="none" xmlns="http://www.w3.org/2000/svg">
<path d="M4.78333 13.8333C4.875 13.425 4.70833 12.8416 4.41667 12.55L2.39167 10.525C1.75833 9.89163 1.50833 9.21663 1.69167 8.63329C1.88333 8.04996 2.475 7.64996 3.35833 7.49996L5.95833 7.06663C6.33333 6.99996 6.79167 6.66663 6.96667 6.32496L8.4 3.44996C8.81667 2.62496 9.38333 2.16663 10 2.16663C10.6167 2.16663 11.1833 2.62496 11.6 3.44996L13.0333 6.32496C13.1417 6.54163 13.3667 6.74996 13.6083 6.89163L4.63333 15.8666C4.51667 15.9833 4.31667 15.875 4.35 15.7083L4.78333 13.8333Z" fill="white"/>
<path d="M15.5833 12.55C15.2833 12.85 15.1167 13.425 15.2167 13.8333L15.7917 16.3416C16.0333 17.3833 15.8833 18.1666 15.3667 18.5416C15.1583 18.6916 14.9083 18.7666 14.6167 18.7666C14.1917 18.7666 13.6917 18.6083 13.1417 18.2833L10.7 16.8333C10.3167 16.6083 9.68333 16.6083 9.29999 16.8333L6.85833 18.2833C5.93333 18.825 5.14166 18.9166 4.63333 18.5416C4.44166 18.4 4.29999 18.2083 4.20833 17.9583L14.3417 7.82496C14.725 7.44162 15.2667 7.26662 15.7917 7.35829L16.6333 7.49995C17.5167 7.64995 18.1083 8.04996 18.3 8.63329C18.4833 9.21662 18.2333 9.89162 17.6 10.525L15.5833 12.55Z" fill="white"/>
</svg>
