<svg width="24" height="24" viewBox="0 0 24 24" fill="none" xmlns="http://www.w3.org/2000/svg">
<path d="M15.3884 5.21L16.7984 8.02999C16.9884 8.41999 17.4984 8.78999 17.9284 8.86999L20.4784 9.28999C22.1084 9.55999 22.4884 10.74 21.3184 11.92L19.3284 13.91C18.9984 14.24 18.8084 14.89 18.9184 15.36L19.4884 17.82C19.9384 19.76 18.8984 20.52 17.1884 19.5L14.7984 18.08C14.3684 17.82 13.6484 17.82 13.2184 18.08L10.8284 19.5C9.11835 20.51 8.07836 19.76 8.52836 17.82L9.09837 15.36C9.20837 14.9 9.01837 14.25 8.68837 13.91L6.69838 11.92C5.52838 10.75 5.90837 9.56999 7.53837 9.28999L10.0884 8.86999C10.5184 8.79999 11.0284 8.41999 11.2184 8.02999L12.6284 5.21C13.3784 3.68 14.6184 3.68 15.3884 5.21Z" stroke="#1053D5" stroke-width="2" stroke-linecap="round" stroke-linejoin="round"/>
<path d="M7.99835 5H1.99835" stroke="#1053D5" stroke-width="2" stroke-linecap="round" stroke-linejoin="round"/>
<path d="M4.99835 19H1.99835" stroke="#1053D5" stroke-width="2" stroke-linecap="round" stroke-linejoin="round"/>
<path d="M2.99835 12H1.99835" stroke="#1053D5" stroke-width="2" stroke-linecap="round" stroke-linejoin="round"/>
</svg>
