<svg width="25" height="24" viewBox="0 0 25 24" fill="none" xmlns="http://www.w3.org/2000/svg">
<path d="M10.8156 3.25H12.021H12.4864C13.7176 3.25 14.6564 4.35177 14.4611 5.56736L13.4968 11.5674C13.3409 12.537 12.5042 13.25 11.5221 13.25H6.89487C5.91281 13.25 5.07605 12.537 4.92021 11.5674L3.95593 5.56736C3.76057 4.35177 4.6994 3.25 5.93059 3.25H6.396H7.60135" stroke="#292D32" stroke-width="2" stroke-linecap="round"/>
<path d="M9.05078 13.4706V17.75C9.05078 19.4069 10.3939 20.75 12.0508 20.75H15.5835C17.2403 20.75 18.5835 19.4069 18.5835 17.75V9.5" stroke="#292D32" stroke-width="2"/>
<circle cx="18.5835" cy="8.25" r="1.5" stroke="#292D32" stroke-width="2"/>
<rect x="10.0684" y="2.29736" width="1.77853" height="1.875" rx="0.889263" fill="#292D32"/>
<rect x="6.58447" y="2.29736" width="1.77853" height="1.875" rx="0.889263" fill="#292D32"/>
</svg>
