<svg width="20" height="20" viewBox="0 0 20 20" fill="none" xmlns="http://www.w3.org/2000/svg">
<path d="M8.48214 1.25H9.6875H10.1529C11.3841 1.25 12.3229 2.35177 12.1276 3.56736L11.1633 9.56736C11.0074 10.537 10.1707 11.25 9.18862 11.25H4.56138C3.57931 11.25 2.74255 10.537 2.58672 9.56736L1.62243 3.56736C1.42707 2.35177 2.36591 1.25 3.59709 1.25H4.0625H5.26786" stroke="#1053D5" stroke-width="2" stroke-linecap="round"/>
<path d="M6.71722 11.4706V15.75C6.71722 17.4069 8.06037 18.75 9.71722 18.75H13.2499C14.9068 18.75 16.2499 17.4069 16.2499 15.75V7.5" stroke="#1053D5" stroke-width="2"/>
<circle cx="16.25" cy="6.25" r="1.5" stroke="#1053D5" stroke-width="2"/>
<rect x="7.73468" y="0.297394" width="1.77853" height="1.875" rx="0.889263" fill="#1053D5"/>
<rect x="4.25079" y="0.297394" width="1.77853" height="1.875" rx="0.889263" fill="#1053D5"/>
</svg>
