<svg width="24" height="24" viewBox="0 0 24 24" fill="none" xmlns="http://www.w3.org/2000/svg">
<path d="M10.4821 3.25H11.6875H12.1529C13.3841 3.25 14.3229 4.35177 14.1276 5.56736L13.1633 11.5674C13.0074 12.537 12.1707 13.25 11.1886 13.25H6.56138C5.57931 13.25 4.74255 12.537 4.58672 11.5674L3.62243 5.56736C3.42707 4.35177 4.36591 3.25 5.59709 3.25H6.0625H7.26786" stroke="#6A7686" stroke-width="2" stroke-linecap="round"/>
<path d="M8.71729 13.4706V17.75C8.71729 19.4069 10.0604 20.75 11.7173 20.75H15.25C16.9068 20.75 18.25 19.4069 18.25 17.75V9.5" stroke="#6A7686" stroke-width="2"/>
<circle cx="18.25" cy="8.25" r="1.5" stroke="#6A7686" stroke-width="2"/>
<rect x="9.73462" y="2.29736" width="1.77853" height="1.875" rx="0.889263" fill="#6A7686"/>
<rect x="6.25073" y="2.29736" width="1.77853" height="1.875" rx="0.889263" fill="#6A7686"/>
</svg>
