<svg width="25" height="24" viewBox="0 0 25 24" fill="none" xmlns="http://www.w3.org/2000/svg">
<path opacity="0.4" d="M22.375 8.37V15.82C22.375 15.97 22.325 16.12 22.195 16.25C20.745 17.71 18.165 20.31 16.685 21.8C16.555 21.94 16.385 22 16.215 22H8.245C5.555 22 3.375 19.82 3.375 17.13V8.37C3.375 5.68 5.555 3.5 8.245 3.5H17.505C20.195 3.5 22.375 5.68 22.375 8.37Z" fill="#1053D5"/>
<path d="M9.16504 6.29C8.74504 6.29 8.41504 5.95 8.41504 5.54V2.75C8.41504 2.34 8.74504 2 9.16504 2C9.58504 2 9.91504 2.34 9.91504 2.75V5.53C9.91504 5.95 9.58504 6.29 9.16504 6.29Z" fill="#1053D5"/>
<path d="M16.585 6.29C16.165 6.29 15.835 5.95 15.835 5.54V2.75C15.835 2.33 16.175 2 16.585 2C17.005 2 17.335 2.34 17.335 2.75V5.53C17.335 5.95 17.005 6.29 16.585 6.29Z" fill="#1053D5"/>
<path d="M15.6549 12.71H8.23486C7.81486 12.71 7.48486 12.37 7.48486 11.96C7.48486 11.55 7.82486 11.21 8.23486 11.21H15.6549C16.0749 11.21 16.4049 11.55 16.4049 11.96C16.4049 12.37 16.0749 12.71 15.6549 12.71Z" fill="#1053D5"/>
<path d="M12.8749 16.4199H8.23486C7.81486 16.4199 7.48486 16.0799 7.48486 15.6699C7.48486 15.2499 7.82486 14.9199 8.23486 14.9199H12.8749C13.2949 14.9199 13.6249 15.2599 13.6249 15.6699C13.6249 16.0799 13.2949 16.4199 12.8749 16.4199Z" fill="#1053D5"/>
<path d="M22.3749 15.8197C22.3749 15.9697 22.3249 16.1197 22.1949 16.2497C20.7449 17.7097 18.1649 20.3097 16.6849 21.7997C16.5549 21.9397 16.3849 21.9997 16.2149 21.9997C15.8849 21.9997 15.5649 21.7397 15.5649 21.3597V17.8597C15.5649 16.3997 16.8049 15.1897 18.3249 15.1897C19.2749 15.1797 20.5949 15.1797 21.7249 15.1797C22.1149 15.1797 22.3749 15.4897 22.3749 15.8197Z" fill="#1053D5"/>
</svg>
