<svg width="25" height="24" viewBox="0 0 25 24" fill="none" xmlns="http://www.w3.org/2000/svg">
<path opacity="0.4" d="M22.375 8.37V15.82C22.375 15.97 22.325 16.12 22.195 16.25C20.745 17.71 18.165 20.31 16.685 21.8C16.555 21.94 16.385 22 16.215 22H8.245C5.555 22 3.375 19.82 3.375 17.13V8.37C3.375 5.68 5.555 3.5 8.245 3.5H17.505C20.195 3.5 22.375 5.68 22.375 8.37Z" fill="#6A7686"/>
<path d="M9.165 6.29C8.745 6.29 8.415 5.95 8.415 5.54V2.75C8.415 2.34 8.745 2 9.165 2C9.585 2 9.915 2.34 9.915 2.75V5.53C9.915 5.95 9.585 6.29 9.165 6.29Z" fill="#6A7686"/>
<path d="M16.585 6.29C16.165 6.29 15.835 5.95 15.835 5.54V2.75C15.835 2.33 16.175 2 16.585 2C17.005 2 17.335 2.34 17.335 2.75V5.53C17.335 5.95 17.005 6.29 16.585 6.29Z" fill="#6A7686"/>
<path d="M15.655 12.71H8.235C7.815 12.71 7.485 12.37 7.485 11.96C7.485 11.55 7.825 11.21 8.235 11.21H15.655C16.075 11.21 16.405 11.55 16.405 11.96C16.405 12.37 16.075 12.71 15.655 12.71Z" fill="#6A7686"/>
<path d="M12.875 16.42H8.235C7.815 16.42 7.485 16.08 7.485 15.67C7.485 15.25 7.825 14.92 8.235 14.92H12.875C13.295 14.92 13.625 15.26 13.625 15.67C13.625 16.08 13.295 16.42 12.875 16.42Z" fill="#6A7686"/>
<path d="M22.375 15.8201C22.375 15.9701 22.325 16.1201 22.195 16.2501C20.745 17.7101 18.165 20.3101 16.685 21.8001C16.555 21.9401 16.385 22.0001 16.215 22.0001C15.885 22.0001 15.565 21.7401 15.565 21.3601V17.8601C15.565 16.4001 16.805 15.1901 18.325 15.1901C19.275 15.1801 20.595 15.1801 21.725 15.1801C22.115 15.1801 22.375 15.4901 22.375 15.8201Z" fill="#6A7686"/>
</svg>
