<svg width="52" height="52" viewBox="0 0 52 52" fill="none" xmlns="http://www.w3.org/2000/svg">
<path d="M17.9617 13.6285C17.0517 13.6285 16.3367 12.8918 16.3367 12.0035V5.9585C16.3367 5.07016 17.0517 4.3335 17.9617 4.3335C18.8717 4.3335 19.5867 5.07016 19.5867 5.9585V11.9818C19.5867 12.8918 18.8717 13.6285 17.9617 13.6285Z" fill="white"/>
<path d="M34.0383 13.6285C33.1283 13.6285 32.4133 12.8918 32.4133 12.0035V5.9585C32.4133 5.0485 33.15 4.3335 34.0383 4.3335C34.9483 4.3335 35.6633 5.07016 35.6633 5.9585V11.9818C35.6633 12.8918 34.9483 13.6285 34.0383 13.6285Z" fill="white"/>
<path d="M46.5833 34.2768C46.5833 34.6018 46.475 34.9268 46.1933 35.2085C43.0517 38.3718 37.4617 44.0051 34.255 47.2335C33.9733 47.5368 33.605 47.6668 33.2367 47.6668C32.5217 47.6668 31.8283 47.1035 31.8283 46.2801V38.6968C31.8283 35.5335 34.515 32.9118 37.8083 32.9118C39.8667 32.8901 42.7267 32.8901 45.175 32.8901C46.02 32.8901 46.5833 33.5618 46.5833 34.2768Z" fill="white"/>
<path d="M46.5833 34.2768C46.5833 34.6018 46.475 34.9268 46.1933 35.2085C43.0517 38.3718 37.4617 44.0051 34.255 47.2335C33.9733 47.5368 33.605 47.6668 33.2367 47.6668C32.5217 47.6668 31.8283 47.1035 31.8283 46.2801V38.6968C31.8283 35.5335 34.515 32.9118 37.8083 32.9118C39.8667 32.8901 42.7267 32.8901 45.175 32.8901C46.02 32.8901 46.5833 33.5618 46.5833 34.2768Z" fill="white"/>
<path d="M42.4017 9.75016C40.9717 8.6885 38.9133 9.70683 38.9133 11.5052V11.7218C38.9133 14.2568 37.0933 16.5968 34.5583 16.8568C31.6333 17.1602 29.1633 14.8635 29.1633 12.0035V9.75016C29.1633 8.5585 28.1883 7.5835 26.9967 7.5835H25.0033C23.8117 7.5835 22.8367 8.5585 22.8367 9.75016V11.7218C22.8367 13.6285 21.8183 15.4052 20.2367 16.2718C20.15 16.3368 20.0633 16.3802 19.9767 16.4235C19.955 16.4235 19.955 16.4452 19.9333 16.4452C19.7817 16.5102 19.63 16.5752 19.4567 16.6402C19.4133 16.6618 19.37 16.6618 19.3267 16.6835C19.0667 16.7702 18.785 16.8352 18.4817 16.8568H18.46C18.135 16.9002 17.7883 16.9002 17.4633 16.8568H17.4417C17.1383 16.8352 16.8567 16.7702 16.5967 16.6835C16.38 16.6185 16.1633 16.5318 15.9467 16.4235C14.2567 15.6652 13.0867 13.9752 13.0867 12.0035V11.5052C13.0867 9.83683 11.31 8.84016 9.90166 9.55516C9.88 9.57683 9.85833 9.57683 9.83666 9.5985H9.815C9.66333 9.70683 9.53333 9.81516 9.38166 9.9235C9.14333 10.1185 8.905 10.3135 8.68833 10.5302C8.53666 10.6818 8.385 10.8335 8.255 10.9852C8.08166 11.1585 7.93 11.3318 7.77833 11.5268C7.67 11.6568 7.54 11.7868 7.45333 11.9385C7.345 12.0685 7.25833 12.2202 7.17166 12.3502C7.15 12.3718 7.12833 12.3935 7.10666 12.4368C6.91166 12.7185 6.73833 13.0435 6.58666 13.3468C6.54333 13.3902 6.52166 13.4118 6.52166 13.4552C6.39166 13.7152 6.26166 13.9752 6.175 14.2568C6.11 14.3652 6.08833 14.4518 6.045 14.5602C6.00166 14.6468 5.98 14.7552 5.93666 14.8418C5.87166 15.0585 5.80666 15.2968 5.74166 15.5352C5.655 15.8385 5.59 16.1635 5.54666 16.4885C5.50333 16.7268 5.48166 16.9652 5.46 17.2252C5.43833 17.5285 5.41666 17.8318 5.41666 18.1352V37.1152C5.41666 42.9435 10.14 47.6668 15.9683 47.6668H26.4117C27.6033 47.6668 28.5783 46.6918 28.5783 45.5002V38.6968C28.5783 33.7135 32.7167 29.6618 37.8083 29.6618C38.9567 29.6402 41.7517 29.6402 44.4167 29.6402C45.6083 29.6402 46.5833 28.6652 46.5833 27.4735V18.1352C46.5833 14.6902 44.9367 11.6785 42.4017 9.75016ZM24.115 34.4718C23.92 35.1218 23.3133 35.5768 22.5983 35.5768H14.7117C14.6033 35.5768 14.5167 35.5768 14.43 35.5335C13.65 35.4252 13.0867 34.7535 13.0867 33.9518C13.0867 33.0418 13.8017 32.3052 14.7117 32.3052H22.5983C23.4867 32.3052 24.2233 33.0418 24.2233 33.9518C24.2233 34.1252 24.2017 34.3202 24.115 34.4718ZM30.1383 26.4335C29.9433 27.0835 29.3367 27.5385 28.6217 27.5385H14.7117C14.6033 27.5385 14.5167 27.5385 14.43 27.4952C13.65 27.3868 13.0867 26.7152 13.0867 25.9135C13.0867 25.0035 13.8017 24.2668 14.7117 24.2668H28.6217C29.5317 24.2668 30.2467 25.0035 30.2467 25.9135C30.2467 26.0868 30.225 26.2818 30.1383 26.4335Z" fill="white"/>
</svg>
