<svg width="127" height="118" viewBox="0 0 127 118" fill="none" xmlns="http://www.w3.org/2000/svg">
<rect x="7.5" y="13" width="104" height="104" rx="52" stroke="#1053D5" stroke-opacity="0.1" stroke-width="2"/>
<path d="M9.58085 0.644672C9.92719 -0.163435 11.0728 -0.163436 11.4191 0.644672L13.9424 6.53234C14.0436 6.76836 14.2316 6.95642 14.4677 7.05757L20.3553 9.58085C21.1634 9.92719 21.1634 11.0728 20.3553 11.4191L14.4677 13.9424C14.2316 14.0436 14.0436 14.2316 13.9424 14.4677L11.4191 20.3553C11.0728 21.1634 9.92719 21.1634 9.58086 20.3553L7.05757 14.4677C6.95642 14.2316 6.76836 14.0436 6.53234 13.9424L0.644672 11.4191C-0.163436 11.0728 -0.163436 9.92719 0.644671 9.58086L6.53234 7.05757C6.76836 6.95642 6.95642 6.76836 7.05757 6.53234L9.58085 0.644672Z" fill="#1053D5"/>
<path d="M119.581 94.6447C119.927 93.8366 121.073 93.8366 121.419 94.6447L122.742 97.7323C122.844 97.9684 123.032 98.1564 123.268 98.2576L126.355 99.5809C127.163 99.9272 127.163 101.073 126.355 101.419L123.268 102.742C123.032 102.844 122.844 103.032 122.742 103.268L121.419 106.355C121.073 107.163 119.927 107.163 119.581 106.355L118.258 103.268C118.156 103.032 117.968 102.844 117.732 102.742L114.645 101.419C113.837 101.073 113.837 99.9272 114.645 99.5809L117.732 98.2576C117.968 98.1564 118.156 97.9684 118.258 97.7323L119.581 94.6447Z" fill="#1053D5"/>
<rect x="22.5" y="28" width="74" height="74" rx="37" fill="#1053D5" fill-opacity="0.09"/>
<rect x="23.5" y="29" width="72" height="72" rx="36" stroke="#1053D5" stroke-opacity="0.3" stroke-width="2"/>
<path d="M59.5001 44.167C48.0209 44.167 38.6667 53.5212 38.6667 65.0003C38.6667 76.4795 48.0209 85.8337 59.5001 85.8337C70.9792 85.8337 80.3334 76.4795 80.3334 65.0003C80.3334 53.5212 70.9792 44.167 59.5001 44.167ZM69.4584 60.2087L57.6459 72.0212C57.3542 72.3128 56.9584 72.4795 56.5417 72.4795C56.1251 72.4795 55.7292 72.3128 55.4376 72.0212L49.5417 66.1253C48.9376 65.5212 48.9376 64.5212 49.5417 63.917C50.1459 63.3128 51.1459 63.3128 51.7501 63.917L56.5417 68.7087L67.2501 58.0003C67.8542 57.3962 68.8542 57.3962 69.4584 58.0003C70.0626 58.6045 70.0626 59.5837 69.4584 60.2087Z" fill="#1053D5"/>
</svg>
