<svg width="24" height="25" viewBox="0 0 24 25" fill="none" xmlns="http://www.w3.org/2000/svg">
<path d="M10.9023 20.3701H17.3723C21.0723 20.3701 21.9923 19.4501 21.9923 15.7501C20.7123 15.7501 19.6823 14.7101 19.6823 13.4401C19.6823 12.1601 20.7123 11.1201 21.9923 11.1201V10.2001C21.9923 6.50008 21.0723 5.58008 17.3723 5.58008H10.9923V12.3701" stroke="#6A7686" stroke-width="2" stroke-linecap="round" stroke-linejoin="round"/>
<path d="M10.9936 17.37V20.37H8.22356C6.74356 20.37 5.87357 19.36 4.91357 17.04L4.73356 16.59C5.94356 16.11 6.53357 14.71 6.02357 13.5C5.53357 12.29 4.14357 11.71 2.92357 12.21L2.75357 11.78C1.31356 8.26 1.81357 7.03 5.33357 5.58L7.97357 4.5L10.9936 11.82V14.37" stroke="#6A7686" stroke-width="2" stroke-linecap="round" stroke-linejoin="round"/>
<path d="M8.16219 20.3701H7.99219" stroke="#6A7686" stroke-width="2" stroke-linecap="round" stroke-linejoin="round"/>
</svg>
