<svg width="37" height="36" viewBox="0 0 37 36" fill="none" xmlns="http://www.w3.org/2000/svg">
<path d="M18.7501 6.97498C11.5801 6.97498 5.74512 12.81 5.74512 19.98C5.74512 27.15 11.5801 33 18.7501 33C25.9201 33 31.7551 27.165 31.7551 19.995C31.7551 12.825 25.9201 6.97498 18.7501 6.97498ZM19.8751 19.5C19.8751 20.115 19.3651 20.625 18.7501 20.625C18.1351 20.625 17.6251 20.115 17.6251 19.5V12C17.6251 11.385 18.1351 10.875 18.7501 10.875C19.3651 10.875 19.8751 11.385 19.8751 12V19.5Z" fill="#732ECB"/>
<path d="M23.085 5.175H14.415C13.815 5.175 13.335 4.695 13.335 4.095C13.335 3.495 13.815 3 14.415 3H23.085C23.685 3 24.165 3.48 24.165 4.08C24.165 4.68 23.685 5.175 23.085 5.175Z" fill="#732ECB"/>
</svg>
