<svg width="37" height="36" viewBox="0 0 37 36" fill="none" xmlns="http://www.w3.org/2000/svg">
<path d="M33.0901 16.11L31.0501 13.74C30.6601 13.29 30.3451 12.45 30.3451 11.85V9.29997C30.3451 7.70997 29.0401 6.40497 27.4501 6.40497H24.9001C24.3151 6.40497 23.4601 6.08997 23.0101 5.69997L20.6401 3.65997C19.6051 2.77497 17.9101 2.77497 16.8601 3.65997L14.5051 5.71497C14.0551 6.08997 13.2001 6.40497 12.6151 6.40497H10.0201C8.43007 6.40497 7.12507 7.70997 7.12507 9.29997V11.865C7.12507 12.45 6.81007 13.29 6.43507 13.74L4.41007 16.125C3.54007 17.16 3.54007 18.84 4.41007 19.875L6.43507 22.26C6.81007 22.71 7.12507 23.55 7.12507 24.135V26.7C7.12507 28.29 8.43007 29.595 10.0201 29.595H12.6151C13.2001 29.595 14.0551 29.91 14.5051 30.3L16.8751 32.34C17.9101 33.225 19.6051 33.225 20.6551 32.34L23.0251 30.3C23.4751 29.91 24.3151 29.595 24.9151 29.595H27.4651C29.0551 29.595 30.3601 28.29 30.3601 26.7V24.15C30.3601 23.565 30.6751 22.71 31.0651 22.26L33.1051 19.89C33.9751 18.855 33.9751 17.145 33.0901 16.11ZM24.9901 15.165L17.7451 22.41C17.5351 22.62 17.2501 22.74 16.9501 22.74C16.6501 22.74 16.3651 22.62 16.1551 22.41L12.5251 18.78C12.0901 18.345 12.0901 17.625 12.5251 17.19C12.9601 16.755 13.6801 16.755 14.1151 17.19L16.9501 20.025L23.4001 13.575C23.8351 13.14 24.5551 13.14 24.9901 13.575C25.4251 14.01 25.4251 14.73 24.9901 15.165Z" fill="#2EA5CB"/>
</svg>
