<svg width="25" height="24" viewBox="0 0 25 24" fill="none" xmlns="http://www.w3.org/2000/svg">
<path d="M17.6801 18C20.0801 18 20.6801 16.65 20.6801 15V9C20.6801 7.35 20.0801 6 17.6801 6C15.2801 6 14.6801 7.35 14.6801 9V15C14.6801 16.65 15.2801 18 17.6801 18Z" stroke="#1053D5" stroke-width="2" stroke-linecap="round" stroke-linejoin="round"/>
<path d="M7.31995 18C4.91995 18 4.31995 16.65 4.31995 15V9C4.31995 7.35 4.91995 6 7.31995 6C9.71995 6 10.3199 7.35 10.3199 9V15C10.3199 16.65 9.71995 18 7.31995 18Z" stroke="#1053D5" stroke-width="2" stroke-linecap="round" stroke-linejoin="round"/>
<path d="M10.3199 12H14.6799" stroke="#1053D5" stroke-width="2" stroke-linecap="round" stroke-linejoin="round"/>
<path d="M23 14.5V9.5" stroke="#1053D5" stroke-width="2" stroke-linecap="round" stroke-linejoin="round"/>
<path d="M2 14.5V9.5" stroke="#1053D5" stroke-width="2" stroke-linecap="round" stroke-linejoin="round"/>
</svg>
